<svg width="50" height="50" viewBox="0 0 50 50" fill="none" xmlns="http://www.w3.org/2000/svg">
<path d="M27.242 35.1507C31.6663 35.1507 35.2528 31.5642 35.2528 27.1399C35.2528 22.7156 31.6663 19.129 27.242 19.129C22.8177 19.129 19.2311 22.7156 19.2311 27.1399C19.2311 31.5642 22.8177 35.1507 27.242 35.1507Z" fill="#0E9347"/>
<path d="M27.2384 31.6763C25.7898 31.6763 24.6116 30.4945 24.6116 29.0417C24.6116 28.6411 24.9357 28.317 25.3362 28.317C25.7367 28.317 26.0608 28.6411 26.0608 29.0417C26.0608 29.6955 26.5888 30.227 27.2384 30.227C27.8915 30.227 28.423 29.6955 28.423 29.0417C28.423 28.3927 27.8915 27.8648 27.2384 27.8648C25.7898 27.8648 24.6116 26.683 24.6116 25.2302C24.6116 23.7824 25.7898 22.6041 27.2384 22.6041C28.6905 22.6041 29.8723 23.7824 29.8723 25.2302C29.8723 25.6308 29.5482 25.9549 29.1476 25.9549C28.7471 25.9549 28.423 25.6308 28.423 25.2302C28.423 24.5813 27.8915 24.0534 27.2384 24.0534C26.5888 24.0534 26.0608 24.5813 26.0608 25.2302C26.0608 25.8841 26.5888 26.4156 27.2384 26.4156C28.6905 26.4156 29.8723 27.5938 29.8723 29.0417C29.8723 30.4945 28.6905 31.6763 27.2384 31.6763Z" fill="white"/>
<path d="M27.2384 24.0534C26.8379 24.0534 26.5138 23.7293 26.5138 23.3288V22.2418C26.5138 21.8413 26.8379 21.5172 27.2384 21.5172C27.6389 21.5172 27.963 21.8413 27.963 22.2418V23.3288C27.963 23.7293 27.6389 24.0534 27.2384 24.0534Z" fill="white"/>
<path d="M27.2384 32.7632C26.8379 32.7632 26.5138 32.4391 26.5138 32.0386V30.9516C26.5138 30.5511 26.8379 30.227 27.2384 30.227C27.6389 30.227 27.963 30.5511 27.963 30.9516V32.0386C27.963 32.4391 27.6389 32.7632 27.2384 32.7632Z" fill="white"/>
<path d="M39.7849 42.3852L42.4796 39.6905L44.9642 42.1751L42.2695 44.8698L39.7849 42.3852Z" fill="#DAE8F0"/>
<path d="M45.5588 48.0853C44.8561 48.0853 44.1959 47.8122 43.6991 47.3154L35.9998 39.6168C35.8639 39.4809 35.7875 39.297 35.7875 39.1045C35.7875 38.912 35.8639 38.728 35.9998 38.5921L38.6946 35.8974C38.9776 35.6143 39.4362 35.6143 39.7192 35.8974L47.4178 43.596C47.9146 44.0927 48.1884 44.7537 48.1884 45.4557C48.1884 46.1584 47.9146 46.8193 47.4178 47.3154C46.921 47.8122 46.2608 48.0853 45.5588 48.0853ZM37.5368 39.1045L44.7238 46.2907C45.183 46.7507 45.9324 46.7521 46.3931 46.2907C46.616 46.0678 46.7392 45.7713 46.7392 45.4557C46.7392 45.1408 46.616 44.8435 46.3931 44.6206L39.2069 37.4344L37.5368 39.1045Z" fill="#626975"/>
<path d="M37.8588 38.4825C37.6734 38.4825 37.488 38.4117 37.3465 38.2702L34.9128 35.8365C34.6298 35.5535 34.6298 35.0949 34.9128 34.8118C35.1959 34.5288 35.6545 34.5288 35.9375 34.8118L38.3711 37.2455C38.6542 37.5285 38.6542 37.9871 38.3711 38.2702C38.2296 38.4117 38.0442 38.4825 37.8588 38.4825Z" fill="#626975"/>
<path d="M27.2454 39.4626C27.244 39.4626 27.2426 39.4626 27.2411 39.4626C23.959 39.4618 20.8715 38.1803 18.5476 35.8535C16.2251 33.5331 14.9449 30.4485 14.9449 27.1664C14.9449 23.885 16.2244 20.7982 18.5483 18.4743C23.3398 13.6827 31.1396 13.6806 35.934 18.4665C40.7255 23.2665 40.7255 31.0691 35.9347 35.8606C33.6114 38.1838 30.5254 39.4626 27.2454 39.4626ZM27.2454 16.3272C24.4664 16.3272 21.6882 17.3845 19.573 19.4989C17.5236 21.549 16.3942 24.2721 16.3942 27.1664C16.3942 30.0607 17.5229 32.7816 19.573 34.8281C21.6231 36.8817 24.3468 38.0126 27.2419 38.0133H27.2454C30.1383 38.0133 32.8606 36.8853 34.91 34.8359C39.1361 30.6091 39.1361 23.725 34.9093 19.4912C32.7962 17.3823 30.0208 16.3272 27.2454 16.3272ZM35.4223 35.3483H35.4294H35.4223Z" fill="#626975"/>
<path d="M33.7898 47.3734H2.53628C2.13575 47.3734 1.81165 47.0493 1.81165 46.6488V11.3984C1.81165 11.2059 1.88807 11.0219 2.02394 10.8861L10.7833 2.12744C10.9192 1.99157 11.1031 1.91515 11.2956 1.91515H33.7898C34.1903 1.91515 34.5145 2.23925 34.5145 2.63978V14.2948C34.5145 14.6954 34.1903 15.0195 33.7898 15.0195C33.3893 15.0195 33.0652 14.6954 33.0652 14.2948V3.36443H11.5957L3.26092 11.6985V45.9242H33.0652V39.9834C33.0652 39.5829 33.3893 39.2588 33.7898 39.2588C34.1903 39.2588 34.5145 39.5829 34.5145 39.9834V46.6488C34.5145 47.0493 34.1904 47.3734 33.7898 47.3734Z" fill="#626975"/>
<path d="M11.2969 2.63954V11.4001H2.53638L11.2969 2.63954Z" fill="#FC9E20"/>
<path d="M11.297 12.1245H2.53629C2.24332 12.1245 1.97866 11.9476 1.86685 11.6772C1.75433 11.4062 1.8166 11.0948 2.02395 10.8875L10.7847 2.12744C10.992 1.9201 11.3034 1.85712 11.5744 1.97034C11.8455 2.08215 12.0217 2.34681 12.0217 2.63978V11.3998C12.0217 11.8004 11.6976 12.1245 11.297 12.1245ZM4.28561 10.6752H10.5724V4.38911L4.28561 10.6752Z" fill="#626975"/>
<path d="M17.5987 17.163H5.4964C5.09587 17.163 4.77176 16.8389 4.77176 16.4383C4.77176 16.0378 5.09587 15.7137 5.4964 15.7137H17.5987C17.9992 15.7137 18.3233 16.0378 18.3233 16.4383C18.3233 16.8389 17.9992 17.163 17.5987 17.163Z" fill="#626975"/>
<path d="M13.9854 22.1958H5.4964C5.09587 22.1958 4.77176 21.8717 4.77176 21.4712C4.77176 21.0706 5.09587 20.7465 5.4964 20.7465H13.9854C14.3859 20.7465 14.71 21.0706 14.71 21.4712C14.71 21.8717 14.3859 22.1958 13.9854 22.1958Z" fill="#626975"/>
<path d="M12.8426 27.2286H5.4964C5.09587 27.2286 4.77176 26.9045 4.77176 26.504C4.77176 26.1035 5.09587 25.7794 5.4964 25.7794H12.8426C13.2431 25.7794 13.5672 26.1035 13.5672 26.504C13.5672 26.9045 13.2431 27.2286 12.8426 27.2286Z" fill="#626975"/>
<path d="M13.5169 32.2679H5.4964C5.09587 32.2679 4.77176 31.9437 4.77176 31.5432C4.77176 31.1427 5.09587 30.8186 5.4964 30.8186H13.5169C13.9175 30.8186 14.2416 31.1427 14.2416 31.5432C14.2416 31.9437 13.9175 32.2679 13.5169 32.2679Z" fill="#626975"/>
<path d="M16.3568 37.3007H5.4964C5.09587 37.3007 4.77176 36.9766 4.77176 36.576C4.77176 36.1755 5.09587 35.8514 5.4964 35.8514H16.3568C16.7573 35.8514 17.0814 36.1755 17.0814 36.576C17.0814 36.9766 16.7573 37.3007 16.3568 37.3007Z" fill="#626975"/>
<path d="M23.6888 42.3378H5.49994C5.09941 42.3378 4.7753 42.0137 4.7753 41.6131C4.7753 41.2126 5.09941 40.8885 5.49994 40.8885H23.6888C24.0893 40.8885 24.4134 41.2126 24.4134 41.6131C24.4134 42.0137 24.0893 42.3378 23.6888 42.3378Z" fill="#626975"/>
</svg>
