<svg width="20" height="20" viewBox="0 0 20 20" fill="none" xmlns="http://www.w3.org/2000/svg">
<path d="M18.751 17.9546V7.4884H15.2352V17.9537L14.0633 17.9534V9.83227H10.5475V17.9525L9.37552 17.9522V12.1761H5.85979V17.9513L4.68782 17.951V14.52H1.17209V17.9501L0.000312495 17.9498L0 19.1217L19.9997 19.1268L20 17.955L18.751 17.9546ZM16.4071 8.66026H17.5791V17.9544L16.4071 17.9541V8.66026ZM11.7194 11.0041H12.8914V17.9532L11.7194 17.9529V11.0041ZM7.03165 13.348H8.20366V17.9519L7.03165 17.9516V13.348ZM2.34395 15.6918H3.51596V17.9507L2.34395 17.9504V15.6918Z" fill="#EE0033"/>
<path d="M3.10984 10.8985L16.1417 3.26287L15.9062 4.15453L17.0392 4.45379L17.7873 1.62129L14.9548 0.873138L14.6556 2.00613L15.5606 2.24519L2.51743 9.88745L3.10984 10.8985Z" fill="#EE0033"/>
</svg>
